<svg preserveAspectRatio="none" overflow="visible" style="display: block;" width="24" height="24" viewBox="0 0 24 24" fill="none" xmlns="http://www.w3.org/2000/svg">
<g id="arrow_right">
<path id="Vector" d="M13.7905 4.98874L13.7208 5.03674C13.0144 5.49398 12.469 6.05049 11.8916 6.64009L11.7529 6.78132C11.5423 6.99572 11.3307 7.20499 11.12 7.4124C10.163 8.35763 9.25839 9.2502 8.59786 10.4858C8.55385 10.5683 8.50318 10.6536 8.45073 10.7412C8.26003 11.0619 8.04401 11.425 8.00756 11.8538C8.00222 11.913 8 11.9726 8 12.0309C8 13.2702 9.0837 14.242 9.87447 14.9514L9.97004 15.0376C10.6297 15.631 11.3418 16.1716 12.0303 16.6937C12.4104 16.9817 12.7904 17.2702 13.1629 17.5676C13.4532 17.7997 13.7337 18.0612 14.0057 18.3138C14.2257 18.5184 14.4462 18.7235 14.6751 18.9178C14.7938 19.0185 14.9103 19.135 15.028 19.252C15.5108 19.7326 16.1722 20.3907 16.9861 19.7032C17.2239 19.5023 18 18.7831 18 17.9568C18 17.6743 17.9098 17.4138 17.7315 17.1835C17.2799 16.5986 16.5185 16.0938 15.8473 15.6487C15.6748 15.5345 15.5108 15.4254 15.3628 15.322C14.6307 14.8107 14.0124 14.2229 13.2798 13.507C13.0807 13.3126 12.8629 13.143 12.6517 12.9789C12.4957 12.8582 12.3406 12.737 12.1934 12.6065L12.1148 12.5371C11.9103 12.3572 11.7947 12.2514 11.7947 12.1684C11.7947 12.1241 11.8183 12.0342 11.9303 11.858C12.0428 11.6813 12.2904 11.4935 12.5299 11.3117C12.7233 11.1649 12.9233 11.013 13.0687 10.854C13.2429 10.6638 13.4034 10.4592 13.5634 10.2542C13.7403 10.0276 13.9079 9.81417 14.0941 9.61841C14.3568 9.34295 14.6551 9.09825 14.9712 8.83957C15.2645 8.59907 15.5677 8.35064 15.849 8.06913C16.1393 7.77782 16.426 7.49583 16.7416 7.24415C17.2546 6.83585 17.4706 6.39027 17.3804 5.94142C17.2537 5.32246 16.3473 4.45273 15.9908 4.19405C15.2992 3.69394 14.6364 4.27002 14.1519 4.69044C14.0266 4.80044 13.9057 4.90577 13.7905 4.98874Z" fill="#FDF9F1"/>
</g>
</svg>
