<svg preserveAspectRatio="none" overflow="visible" style="display: block;" width="38.2813" height="38.2633" viewBox="0 0 38.2813 38.2633" fill="none" xmlns="http://www.w3.org/2000/svg">
<g id="instagram">
<path id="Vector" d="M38.001 16.803C38.001 14.9289 38.001 13.1597 37.8874 10.9329C37.8028 9.14627 37.5201 7.67147 37.0246 6.43276C36.5787 5.25234 35.9025 4.21765 34.964 3.27914C34.1537 2.42516 33.1015 1.74605 31.8395 1.25931C30.525 0.740509 29.0036 0.451962 27.3335 0.402413C26.0423 0.320804 23.9176 0.279999 20.8368 0.279999L19.1493 0.288742L17.4734 0.279999C14.3343 0.279999 12.2475 0.320804 10.933 0.411157C9.30077 0.451961 7.79683 0.737594 6.45902 1.25931C5.20573 1.74897 4.14773 2.43973 3.32872 3.30246C2.39604 4.22639 1.72277 5.264 1.27683 6.45608C0.778429 7.69479 0.501541 9.16376 0.428675 10.9475C0.315005 13.1597 0.315004 14.9376 0.315004 16.8205C0.315004 17.5724 0.315004 18.3302 0.306261 19.1318C0.315004 19.8021 0.315004 20.4375 0.315004 21.0612V21.4343C0.315004 23.3201 0.315005 25.1038 0.428675 27.3364C0.504455 29.1143 0.787172 30.592 1.28849 31.8366C1.72276 33.0141 2.39896 34.0488 3.34329 34.996C4.1623 35.8471 5.21156 36.5262 6.46485 37.0129C7.80557 37.5376 9.2862 37.8203 10.9796 37.8698C12.2737 37.9514 14.3955 37.9923 17.4763 37.9923L19.1638 37.9835L20.8339 37.9923C23.973 37.9923 26.0569 37.9514 27.3743 37.864C29.0153 37.8232 30.5192 37.5376 31.8483 37.0159C33.1074 36.5291 34.1654 35.8383 34.9902 34.9727C35.9171 34.0459 36.5874 33.0112 37.0392 31.8103C37.5289 30.5891 37.8057 29.1231 37.8874 27.3277C38.001 25.1067 38.001 23.3317 38.001 21.4547C38.001 20.7027 38.001 19.9449 38.0098 19.1609V19.1522C38.001 18.473 38.001 17.8377 38.001 17.2168V16.8117V16.803ZM37.0946 21.446C37.0946 23.3113 37.0946 25.0747 36.9809 27.2752C36.9022 28.9686 36.6457 30.3385 36.194 31.4722C35.7801 32.5711 35.1913 33.4775 34.3403 34.3286C33.5912 35.1155 32.6673 35.7159 31.516 36.1619C30.286 36.6457 28.8841 36.908 27.3306 36.9488C26.0161 37.0363 23.9496 37.0771 20.8339 37.0771L19.1638 37.0683L17.4763 37.0771C14.4188 37.0771 12.3145 37.0363 11.0262 36.9576C9.4261 36.9109 8.04166 36.6515 6.80003 36.1619C5.66916 35.7218 4.72774 35.1184 3.99617 34.3548C3.1247 33.4833 2.53594 32.5827 2.13664 31.5043C1.66156 30.3297 1.40799 28.9919 1.33512 27.2898C1.22145 25.0776 1.22145 23.3055 1.22145 21.4314V21.0583C1.22145 20.4346 1.22145 19.7934 1.21271 19.1288C1.22145 18.3331 1.22145 17.5724 1.22145 16.8175C1.22145 14.9464 1.22145 13.1801 1.33512 10.9854C1.40507 9.30366 1.66156 7.93087 2.12498 6.7796C2.5272 5.70119 3.13053 4.77143 3.97868 3.93202C4.72774 3.14798 5.64584 2.54757 6.79129 2.09872C8.03 1.61489 9.43193 1.35258 10.9767 1.31177C12.2912 1.22434 14.3547 1.18353 17.4734 1.18353L19.1522 1.19227L20.8397 1.18353C23.8972 1.18353 26.0045 1.22434 27.2898 1.30594C28.8724 1.35258 30.2919 1.62072 31.5102 2.10164C32.6469 2.53883 33.5883 3.14507 34.314 3.9087C35.1797 4.77434 35.7743 5.67787 36.1794 6.7592C36.6399 7.91047 36.9022 9.28909 36.9809 10.9737C37.0946 13.1801 37.0946 14.9376 37.0946 16.8001V17.2052C37.0946 17.8289 37.0946 18.4672 37.1033 19.1463C37.0946 19.9304 37.0946 20.6911 37.0946 21.443V21.446Z" fill="#2F2722"/>
<path id="Vector_2" d="M38.2633 16.8037C38.2633 12.1374 38.7093 6.68417 35.1505 3.09336C31.9036 -0.182672 26.9896 0.0534114 22.7226 0.0242652C19.3067 0.000948256 15.8791 -0.0340271 12.4661 0.0767284C7.89301 0.225374 3.27334 1.28921 1.2302 5.88265C0.291689 7.98992 0.172189 10.2604 0.102238 12.5309C0.0177139 15.2153 0.0497753 17.9025 0.0526899 20.5869C0.0585191 24.9734 -0.547722 30.3159 2.20951 34.067C5.02211 37.8968 9.62138 38.1533 13.9758 38.2203C17.5113 38.2757 21.0613 38.2815 24.5967 38.2145C29.5603 38.1242 34.8387 37.4567 37.1004 32.3416C38.2196 29.8088 38.2109 26.9699 38.2517 24.2535C38.2896 21.7702 38.2663 19.2841 38.2663 16.8008C38.2663 16.4627 37.7416 16.4627 37.7416 16.8008C37.7416 20.9658 38.0943 25.3581 37.4035 29.4765C36.9722 32.0384 35.6664 34.4547 33.4513 35.8974C31.3907 37.2381 29.0036 37.5208 26.6078 37.6316C23.7573 37.7627 20.9039 37.7045 18.0534 37.7161C14.3664 37.7307 10.0353 38.13 6.54355 36.7514C0.93582 34.5363 0.635614 28.7245 0.58898 23.5365C0.55109 19.1821 0.405358 14.7635 0.725966 10.4178C0.915416 7.83253 1.65864 5.36676 3.52109 3.48392C5.538 1.4466 8.2894 0.802469 11.0612 0.662567C13.9059 0.519751 16.7505 0.554726 19.5952 0.545982C23.629 0.534324 28.4294 0.0155211 32.198 1.69434C38.1701 4.3583 37.7445 11.2922 37.7445 16.7979C37.7445 17.136 38.2692 17.136 38.2692 16.7979L38.2633 16.8037Z" fill="#2F2722"/>
<path id="Vector_3" d="M36.8323 21.4464C36.8323 25.7921 37.3948 31.2045 33.8652 34.431C30.7582 37.2699 25.8092 36.8006 21.8919 36.8152C19.126 36.8239 16.3541 36.8385 13.5853 36.786C9.12007 36.7015 4.25848 36.1885 2.3873 31.4348C1.54789 29.3042 1.5508 26.9725 1.50417 24.7137C1.46336 22.6968 1.47211 20.674 1.47794 18.6571C1.48377 16.4566 1.46336 14.2531 1.54789 12.0526C1.64698 9.49646 1.8889 6.8325 3.57063 4.76895C6.37158 1.33261 10.9534 1.50166 14.9872 1.46086C17.7998 1.43462 20.6182 1.43171 23.4338 1.46086C28.2166 1.5104 33.871 1.59201 35.9287 6.82958C36.9284 9.36822 36.8089 12.2653 36.8293 14.9555C36.8439 17.1182 36.8352 19.2838 36.8323 21.4464C36.8323 21.7845 37.3569 21.7845 37.3569 21.4464C37.3569 19.2051 37.3715 16.9637 37.3511 14.7224C37.3277 12.1954 37.4094 9.50521 36.5787 7.08316C35.1039 2.76952 31.14 1.22769 26.9051 1.02366C23.7631 0.872103 20.6153 0.930396 17.4734 0.924566C13.4104 0.915822 8.22819 0.36496 4.7598 2.90068C0.839634 5.76866 0.985366 10.8255 0.959135 15.1945C0.947476 17.5845 0.950391 19.9716 0.959135 22.3616C0.967878 24.7516 0.871696 27.2873 1.32929 29.6627C2.18327 34.0842 5.58463 36.7423 9.98862 37.1562C13.3958 37.4768 16.8526 37.3252 20.2714 37.3369C24.4684 37.3544 29.9625 37.9869 33.5562 35.3637C37.9048 32.1897 37.3598 26.206 37.3598 21.4464C37.3598 21.1083 36.8352 21.1083 36.8352 21.4464H36.8323Z" fill="#2F2722"/>
<path id="Vector_4" d="M19.158 10.0212C14.1361 10.0212 10.0469 14.1075 10.0469 19.1323C10.0469 24.1571 14.1332 28.2434 19.158 28.2434C24.1828 28.2434 28.2691 24.1571 28.2691 19.1323C28.2691 14.1075 24.1828 10.0212 19.158 10.0212ZM19.158 27.337C14.6345 27.337 10.9534 23.6558 10.9534 19.1323C10.9534 14.6088 14.6345 10.9277 19.158 10.9277C23.6815 10.9277 27.3627 14.6088 27.3627 19.1323C27.3627 23.6558 23.6815 27.337 19.158 27.337Z" fill="#2F2722"/>
<path id="Vector_5" d="M19.158 9.75887C15.302 9.84339 11.7986 12.143 10.4054 15.7863C8.97724 19.5228 10.1373 23.8598 13.2355 26.3868C19.8342 31.7759 29.878 25.8446 28.3799 17.468C27.5813 12.9941 23.6319 9.85505 19.1551 9.75887C18.817 9.75012 18.817 10.2748 19.1551 10.2835C23.97 10.3884 28.0039 14.2416 28.0039 19.1323C28.0039 24.023 23.973 27.9811 19.1551 27.9811C14.3372 27.9811 10.3063 23.9531 10.3063 19.1323C10.3063 14.3115 14.3372 10.3913 19.1551 10.2835C19.4932 10.2748 19.4932 9.75012 19.1551 9.75887H19.158Z" fill="#2F2722"/>
<path id="Vector_6" d="M19.158 27.0742C14.8298 26.9664 11.2273 23.5359 11.2157 19.1319C11.204 14.8095 14.8415 11.1896 19.158 11.1896C23.4746 11.1896 27.1004 14.8095 27.1004 19.1319C27.1004 23.4543 23.4775 26.9664 19.158 27.0742C18.8199 27.083 18.8199 27.6076 19.158 27.5989C22.6585 27.5114 25.8179 25.4362 27.077 22.1223C28.3682 18.7209 27.2694 14.7774 24.4306 12.5128C18.4556 7.74739 9.50772 13.1015 10.8251 20.6096C11.5363 24.6697 15.1067 27.4998 19.158 27.5989C19.4961 27.6076 19.4961 27.083 19.158 27.0742Z" fill="#2F2722"/>
<path id="Vector_7" d="M29.8401 5.59387C28.2662 5.59387 26.9838 6.87339 26.9838 8.4502C26.9838 10.027 28.2633 11.3065 29.8401 11.3065C31.4169 11.3065 32.6964 10.027 32.6964 8.4502C32.6964 6.87339 31.4169 5.59387 29.8401 5.59387ZM29.8401 10.3972C28.7646 10.3972 27.8902 9.52278 27.8902 8.44728C27.8902 7.37179 28.7646 6.4974 29.8401 6.4974C30.9156 6.4974 31.79 7.37179 31.79 8.44728C31.79 9.52278 30.9156 10.3972 29.8401 10.3972Z" fill="#2F2722"/>
<path id="Vector_8" d="M29.8401 5.33218C28.1496 5.42254 26.7214 6.68457 26.7214 8.45082C26.7214 10.2171 28.1438 11.5753 29.8401 11.5695C31.4781 11.5607 32.8684 10.2462 32.95 8.60821C33.0403 6.78366 31.5947 5.43128 29.8401 5.3351C29.502 5.31761 29.5049 5.84224 29.8401 5.85973C33.1569 6.04044 33.189 11.0448 29.8401 11.0448C26.4912 11.0448 26.5203 6.03752 29.8401 5.85973C30.1753 5.84224 30.1782 5.31761 29.8401 5.3351V5.33218Z" fill="#2F2722"/>
<path id="Vector_9" d="M29.8401 10.1353C27.6804 10.0187 27.6599 6.76016 29.8401 6.76016C32.0202 6.76016 31.9998 10.0187 29.8401 10.1353C29.5049 10.1528 29.502 10.6774 29.8401 10.6599C31.038 10.5958 32.0523 9.6981 32.0523 8.44773C32.0523 7.19735 31.0409 6.2297 29.8401 6.23553C28.6393 6.24136 27.6891 7.17695 27.6337 8.33989C27.5725 9.63106 28.5985 10.59 29.8401 10.657C30.1782 10.6745 30.1753 10.1499 29.8401 10.1324V10.1353Z" fill="#2F2722"/>
</g>
</svg>
