<svg preserveAspectRatio="none" overflow="visible" style="display: block;" width="52.0612" height="49.537" viewBox="0 0 52.0612 49.537" fill="none" xmlns="http://www.w3.org/2000/svg">
<g id="Group 161">
<path id="Vector" d="M19.4646 29.7612H4.55542C3.11121 29.7612 1.70728 29.5894 1.61332 27.7157C1.46568 24.8246 1.61332 21.8879 1.61332 18.9941V6.58686C1.61332 5.61779 1.565 4.63262 1.61332 3.66355C1.6858 2.23008 2.6656 1.63951 3.92995 1.61804C6.63046 1.57509 9.33633 1.61804 12.0395 1.61804H36.5185C38.462 1.61804 41.788 0.95231 41.9034 3.75213C42.0511 7.32506 41.9034 10.9329 41.9034 14.5085V15.5769C41.9034 16.6131 43.514 16.6158 43.514 15.5769V4.88226C43.514 3.07567 43.3825 1.23686 41.5061 0.332215C40.6847 -0.0650759 39.7827 0.00471804 38.8996 0.00471804H4.51515C3.53803 0.00471804 2.59044 -0.0409163 1.70459 0.490594C0.26844 1.35497 0 2.8636 0 4.38297V27.1359C0 28.7707 0.461716 30.3572 2.10457 31.0793C3.22933 31.5732 4.7487 31.3638 5.94325 31.3638H19.4619C20.498 31.3638 20.5007 29.7532 19.4619 29.7532L19.4646 29.7612Z" fill="#2F2722"/>
<path id="Vector_2" d="M5.72313 24.9641H10.6812C11.1993 24.9641 11.1993 24.1588 10.6812 24.1588H5.72313C5.20504 24.1588 5.20504 24.9641 5.72313 24.9641Z" fill="#2F2722"/>
<path id="Vector_3" d="M13.4435 24.9641H18.4015C18.9196 24.9641 18.9196 24.1588 18.4015 24.1588H13.4435C12.9254 24.1588 12.9254 24.9641 13.4435 24.9641Z" fill="#2F2722"/>
<path id="Vector_4" d="M0.808008 9.10466H42.7087C43.7449 9.10466 43.7476 7.49402 42.7087 7.49402H0.808008C-0.228169 7.49402 -0.230853 9.10466 0.808008 9.10466Z" fill="#2F2722"/>
<path id="Vector_5" d="M52.0612 19.9684C46.8481 19.6866 36.8057 15.8264 36.8057 15.8264C36.8057 15.8264 26.7634 19.6839 21.5503 19.9684V31.1677C21.5503 39.9001 28.3794 49.537 36.8057 49.537C45.2321 49.537 52.0612 39.9001 52.0612 31.1677V19.9684ZM49.6721 31.2644C49.6721 38.6303 43.9113 46.756 36.8057 46.756C29.7002 46.756 23.9394 38.6303 23.9394 31.2644V21.818C28.3365 21.5791 36.8057 18.3256 36.8057 18.3256C36.8057 18.3256 45.275 21.5791 49.6721 21.818V31.2644Z" fill="#2F2722"/>
<path id="Vector_6" d="M43.0228 27.7156C40.6149 30.8187 38.207 33.9246 35.7991 37.0277L37.2621 36.8398L31.292 33.1273C29.9686 32.3032 28.7526 34.3943 30.0733 35.2131C32.0624 36.4506 34.0542 37.6881 36.0434 38.9256C36.4487 39.1779 37.1896 39.1457 37.5064 38.7377C39.9143 35.6345 42.3222 32.5287 44.7301 29.4255C45.6723 28.2122 43.9731 26.4888 43.0228 27.7182V27.7156Z" fill="#2F2722"/>
</g>
</svg>
